<?xml version="1.0" encoding="utf-8"?>
<!-- Generator: Adobe Illustrator 23.1.0, SVG Export Plug-In . SVG Version: 6.00 Build 0)  -->
<svg version="1.1" id="Layer_1" xmlns="http://www.w3.org/2000/svg" xmlns:xlink="http://www.w3.org/1999/xlink" x="0px" y="0px"
	 viewBox="0 0 198 35" style="enable-background:new 0 0 198 35;" xml:space="preserve">
<style type="text/css">
	.st0{fill:#4361FF;}
</style>
<polygon class="st0" points="0.5,0.49 0.5,8.97 0.5,13.67 0.5,21.31 0.5,26.01 0.5,34.49 14.07,34.49 41.11,34.49 41.11,26.01 
	14.07,26.01 14.07,21.31 41.11,21.31 41.11,13.67 14.07,13.67 14.07,8.97 41.11,8.97 41.11,0.49 14.07,0.49 "/>
<polygon class="st0" points="45.78,0.49 45.78,8.97 45.78,13.67 45.78,21.31 45.78,26.01 45.78,34.49 59.35,34.49 86.38,34.49 
	86.38,26.01 59.35,26.01 59.35,21.31 86.38,21.31 86.38,13.67 59.35,13.67 59.35,8.97 86.38,8.97 86.38,0.49 59.35,0.49 "/>
<polygon class="st0" points="104.5,0.49 91.05,0.49 91.05,23.89 91.05,34.49 104.5,34.49 131.54,34.49 131.54,23.89 104.5,23.89 "/>
<polygon class="st0" points="180.69,0.49 166.44,17.49 153.25,0.49 136.2,0.49 136.2,34.49 149.79,34.49 149.79,16.47 163.37,34.49 
	170.03,34.49 183.62,16.6 183.62,34.49 197.5,34.49 197.5,0.49 "/>
</svg>
