<?xml version="1.0" encoding="utf-8"?>
<!-- Generator: Adobe Illustrator 23.1.0, SVG Export Plug-In . SVG Version: 6.00 Build 0)  -->
<svg version="1.1" id="Layer_1" xmlns="http://www.w3.org/2000/svg" xmlns:xlink="http://www.w3.org/1999/xlink" x="0px" y="0px"
	 viewBox="0 0 139 35" style="enable-background:new 0 0 139 35;" xml:space="preserve">
<style type="text/css">
	.st0{fill:#819FFF;}
</style>
<path class="st0" d="M25.2,16.01c12.9,0,12.9-5.37,25.81-5.37s12.9,5.37,25.81,5.37c12.9,0,12.9-5.37,25.81-5.37
	s12.9,5.37,25.81,5.37c4.61,0,7.57-0.69,10.06-1.57V4.1c-2.49,0.88-5.45,1.57-10.06,1.57c-12.9,0-12.9-5.37-25.81-5.37
	s-12.9,5.37-25.81,5.37c-12.9,0-12.9-5.37-25.81-5.37S38.1,5.67,25.2,5.67c-12.51,0-12.93-5.03-24.7-5.34v10.34
	C12.27,10.98,12.69,16.01,25.2,16.01z"/>
<path class="st0" d="M25.2,29.3c12.9,0,12.9-5.37,25.81-5.37s12.9,5.37,25.81,5.37c12.9,0,12.9-5.37,25.81-5.37
	s12.9,5.37,25.81,5.37c4.61,0,7.57-0.69,10.06-1.57V17.39c-2.49,0.88-5.45,1.57-10.06,1.57c-12.9,0-12.9-5.37-25.81-5.37
	s-12.9,5.37-25.81,5.37c-12.9,0-12.9-5.37-25.81-5.37s-12.9,5.37-25.81,5.37c-12.51,0-12.93-5.03-24.7-5.34v10.34
	C12.27,24.27,12.69,29.3,25.2,29.3z"/>
</svg>
