<?xml version="1.0" encoding="utf-8"?>
<!-- Generator: Adobe Illustrator 25.1.0, SVG Export Plug-In . SVG Version: 6.00 Build 0)  -->
<svg version="1.1" xmlns="http://www.w3.org/2000/svg" xmlns:xlink="http://www.w3.org/1999/xlink" x="0px" y="0px"
	 viewBox="0 0 170 22" style="enable-background:new 0 0 170 22;" xml:space="preserve">
<style type="text/css">
	.st0{fill:#848484;}
	.st1{fill:#C2C2C2;}
</style>
<g id="레이어_1">
	<g>
		<path class="st0" d="M73,6.7H56.7v2.8H73v4.6H56.7v2.8H73V22H56.7h-8.2v-5.1v-2.8V9.5V6.7V1.6h8.2H73V6.7z M100.4,6.7H84.1v2.8
			h16.4v4.6H84.1v2.8h16.4V22H84.1h-8.2v-5.1v-2.8V9.5V6.7V1.6h8.2h16.4V6.7z M127.7,22h-16.4h-8.1v-6.4v-14h8.1v14h16.4V22z
			 M167.6,22h-8.4V11.2L151,22h-4l-8.2-10.8V22h-8.2V1.6h10.3l8,10.2l8.6-10.2h10.2V22z"/>
	</g>
</g>
<g id="레이어_2">
	<path class="st1" d="M44.8,9.2C41,8.3,39.6,6.3,33.5,6.3c-7.9,0-7.9,3.3-15.8,3.3v1.8c7.9,0,7.9-3.3,15.8-3.3c6,0,7.5,1.9,11.3,2.8
		v6.3c-3.8-0.9-5.3-2.8-11.3-2.8c-7.9,0-7.9,3.3-15.8,3.3v4.1H8.4v-6.3c-1.5-0.5-3.2-1-5.8-1.1V8.2C5.3,8.2,7,8.7,8.4,9.2V7.4
		C7,6.9,5.3,6.4,2.6,6.4V0c7.2,0.2,7.5,3.3,15.1,3.3c7.9,0,7.9-3.3,15.8-3.3c6,0,7.5,1.9,11.3,2.8V9.2z"/>
</g>
</svg>
